<svg xmlns="http://www.w3.org/2000/svg" x="0" y="0" width="700" height="440" viewBox="170 230 700 440" version="1.1" style="display:block;">
<defs>
<clipPath id="c_1"><path d="M0,0H1650V799H0Z" /></clipPath>
<style>
text { white-space: pre; }
path, image { pointer-events: none; }

.s0_1{font-size:124.38px;font-family:Pattanakarn-Medium_15;fill:#54A561;}
.s1_1{font-size:69.67px;font-family:OpenSans_14;fill:#54A561;}
.s2_1{font-size:43.98px;font-family:OpenSans_14;fill:#54A561;}
.s3_1{font-size:19.42px;font-family:OpenSans_14;fill:#54A561;}
.s4_1{font-size:19.42px;font-family:OpenSans_1c;fill:#54A561;}

.g0_1{fill:#54A561;}
.g1_1{fill:#000;}
.g2_1{fill:#FFF;stroke:#231F20;stroke-width:1.527;stroke-miterlimit:10;}

</style>

</defs>
<g clip-path="url(#c_1)">
<text x="523.2" y="534.5" dx="0 21 21 21 21 21 21 21" class="s0_1">ZEDTREEO </text>
<text x="537.2" y="622.4" dx="0 20.2 20.2 20.2 20.2 20.2 20.2 20.2 20.2 20.2 20.2 20.2" class="s1_1">Be Boundless </text>
<path d="M398.7 429.8c-.1-16.4 12.5-29.5 28.5-29.6c16-.1 28.4 12.8 28.4 29.8c.1 16.1-12.6 28.9-28.6 29c-15.6 .1-28.3-12.9-28.3-29.2Z" class="g0_1" />
<path d="M316.5 433.9c0-19.9 10.9-32.7 26.7-34.1c9.8-.8 17.8 3.4 23.4 11.8c9.2 13.9 4.8 34.8-9.1 42.7c-8.9 5.1-18.2 6-27.2 .6c-9.4-5.5-13.7-14.2-13.8-21Z" class="g0_1" />
<path d="M359 501.5c0-14.5 11.1-26.2 25.7-25.9c18.7 .4 28.2 15.2 28.1 28.6c-.1 15-10.9 26.3-25.3 26.3c-15.4 0-28.4-13.3-28.5-29Z" class="g0_1" />
<path d="M361.1 363.2c.1-15.4 13.3-28.4 29-28.5c14.1-.1 25.3 11.1 25.3 25.1c0 15.4-13.3 28.1-29.3 28c-14-.1-25-10.9-25-24.6Z" class="g0_1" />
<path d="M334.1 507.4c.1 12.9-7.1 21.9-18.9 23.3c-6.4 .8-12.2-1.3-17.1-5.3c-10.4-8.5-14.8-19.4-12.6-32.7c2.3-13.2 16.5-20.1 29.8-14.5c11.2 4.6 18.8 16.4 18.8 29.2Z" class="g0_1" />
<path d="M336.1 356.5c-.1 14.5-11.1 28.1-25.3 31.1c-15 3.1-26.3-7.6-24.6-23.3c1.5-13.5 12.8-26 25.9-28.6c12.9-2.6 23.3 5.5 24 18.7c0 .7 0 1.4 0 2.1Z" class="g0_1" />
<path d="M292.3 429.2c-.9 10-3.8 18.7-11.3 25.5c-9 8.2-20.6 6.9-27.6-3c-8.5-12.1-7.1-32.8 3.1-43.6c10.5-11.1 25.8-8.1 31.9 6.5c1.9 4.6 2.6 9.7 3.9 14.6Z" class="g0_1" />
<path d="M566.6 369.4c.1 18.7-14.4 28-29.2 20.4c-12.1-6.2-18.5-16.5-18.5-30.1c.1-17.5 15-26.1 30.3-17.4c11.1 6.3 16.4 16.5 17.4 27.1Z" class="g0_1" />
<path d="M429.4 327.7c-13.4 .1-24.1-9.6-24.1-21.8c0-12.3 10.8-22.6 23.9-22.7c12.8-.1 23.9 10.5 24 23.1c.1 12.1-10.3 21.4-23.8 21.4Z" class="g0_1" />
<path d="M353.3 327c-12.7 .2-20.6-9-17.2-20.9c1.2-4.5 4-8.9 7-12.5c5.4-6.5 12.7-10.1 21.3-10.6c12.1-.7 20.2 8.3 18.2 20.4c-2.2 13-15.1 23.5-29.3 23.6Z" class="g0_1" />
<path d="M503.7 329.8c-13.6-.1-26.1-11.1-28-24.5c-1.8-12.7 7.2-21.7 19.9-19.9c11.9 1.6 23.9 13.8 25.5 25.8c1.4 10.7-6.1 18.7-17.4 18.6Z" class="g0_1" />
<path d="M267 514.9c-1.3 4.3-2 8.9-4 12.9c-2.8 5.6-8.7 7-14.2 3.8c-9.3-5.4-14-14.3-16.3-24.2c-1.2-5.7-1.5-11.8-.8-17.5c1.2-10.6 10-14.3 18.9-8.3c8.3 5.6 12 14.3 14.4 23.5c.8 3.1 .9 6.3 1.4 9.5c.2 .1 .4 .2 .6 .3Z" class="g0_1" />
<path d="M231.9 374.6c1.3-13 5.9-25.3 17.6-33.9c8.7-6.4 16.7-3 17.8 7.8c1.6 15.8-4.4 28.7-16.4 39c-.8 .6-1.6 1-2.5 1.4c-8.1 4.3-14.9 .7-16.1-8.4c-.3-1.6-.3-3.3-.4-5.9Z" class="g0_1" />
<path d="M315.5 577.1c.1 10.7-7.1 15.8-16.9 11.3c-13.3-6.2-21.8-16.7-24.3-31.3c-1.7-10 5.1-15.9 14.9-13.7c13.6 3.1 26.3 19.3 26.3 33.7Z" class="g0_1" />
<path d="M579.5 322.2c.1 7.8-4.3 12.1-12.1 11c-9.6-1.2-16.5-7.2-21.9-14.8c-4.5-6.2-7.4-13.1-6.9-21.1c.3-6.4 4.7-9.9 10.9-9c13.6 2 29.8 20.3 30 33.9Z" class="g0_1" />
<path d="M275.4 316.5c.5-6.8 4.8-13.6 10.3-19.8c5.3-5.8 11.5-10.5 19.4-12.3c7-1.5 12.5 2.5 12.5 9.6c0 9.8-4.8 17.6-11.5 24.2c-5.7 5.6-12.2 9.8-20.4 10.2c-6.7 .3-10.3-3.3-10.3-11.9Z" class="g0_1" />
<path d="M205 436.5c.9-8.2 1.7-16.1 5.3-23.3c1.2-2.5 3-4.8 5.1-6.7c3.1-2.8 6-2.4 8.9 .8c3.7 4 4.9 9 5.7 14.2c1.9 11.9 1.1 23.5-4.3 34.6c-1.8 3.6-4.2 7.5-8.7 7.3c-4.7-.2-7-4.4-8.1-8.4c-1.7-6.1-2.6-12.3-3.9-18.5Z" class="g0_1" />
<path d="M415 617.4c0 13.4-11.7 20.5-23.2 13.7c-7.1-4.2-11.9-10.3-13-18.8c-1-8.3 4-14.5 12.3-15.6c12.4-1.7 23.8 8.2 23.9 20.7Z" class="g0_1" />
<path d="M355.8 634c-4.5-.3-9.3-2.9-13.8-5.9c-7-4.8-12.8-10.6-15.3-18.9c-2.5-7.9 2.3-13.4 10.6-12.3c10.4 1.3 17.9 7.1 23.1 15.8c2.2 3.6 3.6 8 4.4 12.2c1.1 5.6-2.4 9.2-9 9.1Z" class="g0_1" />
<path d="M398.9 274.8c-2.9-.8-6-1.3-8.7-2.6c-5.8-2.7-8-8-6.2-14.1c2.6-9.4 14.9-17.9 24.7-16.6c5.5 .7 9.7 3.5 11.6 9c2.2 6.7 .2 12.4-4.6 17.2c-4.6 4.5-10.3 6.4-16.8 7.1Z" class="g0_1" />
<path d="M460.7 275.1c-12-.1-21.5-8.8-21.4-19.4c.1-8.2 6.7-14.4 14.8-13.5c9.2 1 16.1 5.9 20.3 14.2c5.1 10.2-1.4 18.9-13.7 18.7Z" class="g0_1" />
<path d="M338.6 274.5c-8.4 .1-12-5.2-7.7-12.5c6.7-11.5 17.1-18.2 30.3-20.2c6.1-.9 9.3 3.1 7.8 9.2c-2.8 12.1-17.5 23.4-30.4 23.5Z" class="g0_1" />
<path d="M518.5 277.8c-.8-.1-2.4-.3-4-.8c-12.1-3.8-20.7-11.5-24.3-23.9c-1.7-5.9 1.6-10 7.5-8.9c13.5 2.5 23.6 10.1 29.3 22.6c3 6.2-.7 11-8.5 11Z" class="g0_1" />
<path d="M270.2 586.7c0 5.2-1.8 6.5-5.8 5.2c-1.3-.5-2.7-1.1-3.8-1.9c-12.3-9.2-20.5-21.3-24.4-36.2c-.3-1.3-.4-2.8-.1-4.2c.5-3.2 2.5-4.6 5.5-3.3c3.2 1.4 6.5 3.1 9 5.4c9.1 8.9 15.7 19.4 19 31.8c.4 1.3 .5 2.7 .6 3.2Z" class="g0_1" />
<path d="M620.6 332.1c.2 5.8-2.5 7.8-6.6 5.2c-4.3-2.8-8.4-6.2-11.8-10c-7.2-8.2-13-17.4-15.5-28.3c-.5-1.8-.1-4.8 1.2-5.9c.9-.9 4-.2 5.7 .7c7.6 4.2 12.9 10.7 17.5 17.8c3.5 5.4 6 11.4 8.8 17.2c.6 1.3 .6 2.8 .7 3.3Z" class="g0_1" />
<path d="M236.3 326c.2-.6 .3-2.1 .9-3.5c5.2-13.3 13.5-24.3 24.9-32.9c2.2-1.6 5.1-4.3 7.4-2.1c1.4 1.4 1.2 5.4 .3 7.8c-4.7 13-12.2 24.1-23.1 32.9c-1.3 1.1-2.9 2-4.5 2.8c-4.1 1.8-6 .5-5.9-5Z" class="g0_1" />
<path d="M290.3 598.1c3.5 1.6 7.2 2.9 10.4 4.9c9.6 6.2 17.2 14.4 22.6 24.5c1.1 2 .9 4.8 1.3 7.2c-2.4-.1-5 .4-7.1-.5c-12.3-5.1-22-13.5-29.7-24.3c-1.2-1.8-2-4.1-2.4-6.2c-.7-3.5 1.1-5.1 4.9-5.6Z" class="g0_1" />
<path d="M223.8 526.9c-.2 2.2-.2 4.5-.5 6.7c-.6 3.4-2.8 4.4-5.1 1.9c-2.8-3.2-5.3-6.7-7.1-10.5c-4.8-9.9-8.2-20.3-9.1-31.4c-.2-2.5 0-5.2 .6-7.7c.7-3.3 3.4-4.1 5.6-1.6c2.3 2.6 4.3 5.4 5.8 8.4c5.4 10.8 8.7 22.2 9.8 34.2Z" class="g0_1" />
<path d="M203.1 388.1c1.8-15.4 6.2-29.9 15.1-42.8c1.2-1.7 3.7-2.5 5.5-3.7c.5 2.1 1.6 4.2 1.4 6.3c-1.5 14.6-6.1 28.3-13.7 40.9c-1.1 1.7-2.4 3.2-3.9 4.6c-.6 .6-2.1 1.4-2.7 1.1c-.8-.5-1.4-1.8-1.6-2.9c-.3-1.1-.1-2.3-.1-3.5Z" class="g0_1" />
<path d="M570.2 276.8c.1 3.6-1.6 5.2-4.4 4.3c-3.6-1-7.2-2.4-10.4-4.4c-9.3-5.8-17-13.4-22.9-22.7c-1.1-1.9-1.2-4.5-1.8-6.8c2.3 .2 4.8-.1 6.7 .7c12.2 5.4 22.6 13.2 30.4 24.1c1.2 1.7 1.9 3.8 2.4 4.8Z" class="g0_1" />
<path d="M292.1 276.4c-4.2 .1-5.8-1.8-4-4.7c2.6-4.2 5.5-8.6 9.3-11.7c6.7-5.4 14.1-9.8 21.2-14.6c1.3-.8 3-1.4 4.6-1.7c1.5-.2 3.1 .1 4.6 .3c-.3 1.4-.2 3-.9 4.2c-4.3 7.4-10.3 13.5-17.1 18.6c-4.3 3.2-9.2 5.7-13.9 8.4c-1.4 .8-3.1 1-3.8 1.2Z" class="g0_1" />
<path d="M434.1 651.9c-.2 7.1-5.7 13.6-11.6 13.4c-5.4-.2-10.8-7.3-10.5-14c.2-6 5-10.2 11.4-10c6.5 .1 10.8 4.4 10.7 10.6Z" class="g0_1" />
<path d="M382.4 640.4c9.9 1 20.5 11.4 20.9 20.8c.2 2.6-.9 4.3-3.6 3.9c-2.3-.4-4.6-1.1-6.7-2c-6.4-3-12.2-6.8-15.6-13.2c-1-1.8-1.3-4.8-.5-6.5c.8-1.5 3.6-2 5.5-3Z" class="g0_1" />
<path d="M445.9 666.6c-2.9-.5-3.7-2-3.6-4.4c.5-9.4 12-20.1 21.4-19.8c4.9 .1 7 3.5 4.9 7.9c-2.8 6-8.2 9.3-13.7 12.3c-2.8 1.6-6 2.7-9 4Z" class="g0_1" />
<path d="M501.3 647.2c-.3 1.1-.7 2.2-1.4 2.9c-7.4 7.7-16.8 11.8-26.6 15c-1.3 .4-2.8-.1-3.5-1.2c-.8-1.3-.6-2.9 .5-3.9c7.7-6.9 16.1-12.7 26.6-15.3c.9-.2 2.1 .1 3.2 .4c.9 .3 1.4 1.2 1.2 2.1Z" class="g0_1" />
<path d="M297.3 635.5c-10.5-5-28.1-20.4-34-29.9c-1-1.6 .7-3.5 2.4-2.7c.5 .2 .9 .5 1.3 .8c8.2 6.7 16.3 13.5 24.3 20.5c3 2.5 5.6 5.5 8.2 8.3c0 0 0 .1 0 .1c1.4 1.5-.4 3.8-2.2 2.9Z" class="g0_1" />
<path d="M380.2 664.7c.2 .8-.6 1.5-1.3 1.2c-3.3-.9-6.2-1.7-8.9-2.8c-8.9-3.6-17.4-8.1-24.4-14.7c-1.1-1-1.7-2.6-2.4-4.1c-.3-.6 .1-1.3 .7-1.4c1.7-.4 3.5-1 4.9-.6c12.6 4.3 22.8 12.2 31.3 22.3c0 0 .1 0 .1 .1Z" class="g0_1" />
<path d="M431.5 233.4c-2.2-.2-3.4-.2-4.6-.4c-5.1-1.3-8.2-5.1-7.4-9.3c.8-4.5 7-9.3 11.7-8.2c3 .7 6.3 2.4 8.5 4.6c3.9 3.9 2.6 9.3-2.4 11.6c-2.1 1-4.5 1.3-5.8 1.7Z" class="g0_1" />
<path d="M388.5 233.6c-1.8-1-4.7-1.7-5.2-3.2c-.6-1.4 .9-4.2 2.3-5.5c5.9-5.7 13.3-8.5 21.2-9.6c3.5-.5 4.6 1.4 3.1 4.8c-3 6.8-13 12.9-21.4 13.5Z" class="g0_1" />
<path d="M472.5 234.9c-9.8-1.4-16.8-5.7-21.2-13.6c-.7-1.2-.9-3.3-.2-4.2c.6-.9 2.9-1.2 4-.7c5.8 2.3 11.4 4.9 17 7.6c1.2 .6 2.4 1.7 3 2.8c.9 1.8 2.1 4.1 1.6 5.6c-.4 1.3-3.1 1.9-4.2 2.5Z" class="g0_1" />
<path d="M194.5 466.8c-2.9-18.8-2.4-37.5 1.2-56.2c3 18.8 2.2 37.5-1.2 56.2Z" class="g0_1" />
<path d="M473.7 216.9c3.6 1.1 7.4 1.7 10.7 3.2c7.6 3.5 15.2 7.4 22.6 11.4c1.3 .7 1.9 2.9 2.8 4.4c-1.7 0-3.4 .5-5 0c-9.7-2.6-17.8-8.3-25.9-13.9c-2-1.3-3.7-2.8-5.6-4.3c.2-.2 .3-.5 .4-.8Z" class="g0_1" />
<path d="M386.8 217c-6.9 4-13.8 8.3-20.9 12c-4.2 2.1-8.8 3.3-13.3 4.7c-.9 .3-2.1-.3-3.2-.6c.5-1 .7-2.6 1.5-3.1c4.1-2.6 8.1-5.4 12.5-7.2c7.4-3 15-5.2 22.5-7.8c.3 .7 .6 1.3 .9 2Z" class="g0_1" />
<path d="M220 550.9c12 13.2 21 28.3 30.2 44.4C243 592.4 221 560 220 550.9Z" class="g0_1" />
<path d="M364.3 666.2c-16.1-4.1-31.1-10.5-44.3-20.6c-.4-.4-.6-1-.4-1.4c.3-.6 .9-.8 1.5-.7c15.6 5.2 28.9 14.9 43.2 22.7Z" class="g0_1" />
<path d="M263.7 278.9c10.7-14 24.6-24.2 39.9-32.6c-12.5 11.8-24.9 23.8-39.9 32.6Z" class="g0_1" />
<path d="M595.1 284.7c-14.7-8.9-26.1-21.5-38-33.6c14.8 8.8 27.9 19.5 38 33.6Z" class="g0_1" />
<path d="M533.6 239.4c-12.8-5.9-25.5-11.9-38.8-18.2c7.1-.1 34.2 12.2 38.8 18.2Z" class="g0_1" />
<path d="M366.2 218.4c-13.2 5.8-26.3 11.5-39.4 17.3c-.1-.4-.3-.8-.5-1.2c12.2-7.9 26-12 39.9-16.1Z" class="g0_1" />
<path d="M246.6 295.6c-8.3 12.4-16.6 24.7-25 37.1c6.7-13.5 14.5-26.2 25-37.1Z" class="g0_1" />
<path d="M614.6 303.9c6.8 10.6 13.5 21.2 20.2 31.8c.3 .4 .2 .8-.2 1.1l-.2 .1c-.3 .2-.8 .1-1-.3c-6.7-10.6-13.4-21.3-20-31.9c-.3-.4-.1-.9 .2-1.1c.4-.2 .8 0 1 .3Z" class="g0_1" />

</g>


</svg>