<svg x="0" y="0" width="1650" height="694" viewBox="0 0 1650 694" version="1.1" xmlns="http://www.w3.org/2000/svg" style="display: block;margin-left: auto;margin-right: auto;">
<defs>
<clipPath id="c_4"><path d="M0,0H1650V694H0Z"/></clipPath>
<style>
text { white-space: pre; }
path, image { pointer-events: none; }

.s0_4{font-size:124.38px;font-family:Pattanakarn-Medium_15;fill:#FFF;}
.s1_4{font-size:69.67px;font-family:OpenSans_14;fill:#FFF;}

.g0_4{fill:#000;}
.g1_4{fill:#FFF;}

</style>

</defs>
<g clip-path="url(#c_4)">
<text x="564.8" y="389.7" dx="0 21 21 21 21 21 21 21" class="s0_4">ZEDTREEO </text>
<text x="578.8" y="477.5" dx="0 20.2 20.2 20.2 20.2 20.2 20.2 20.2 20.2 20.2 20.2 20.2" class="s1_4">Be Boundless </text>
<path d="M440.3 284.9c0-16.3 12.5-29.4 28.5-29.5c16-.2 28.4 12.8 28.5 29.8c0 16-12.7 28.9-28.7 29c-15.6 .1-28.2-13-28.3-29.3Z" class="g1_4"/>
<path d="M358.1 289.1c0-20 10.9-32.8 26.7-34.1c9.8-.8 17.8 3.3 23.4 11.8c9.2 13.9 4.8 34.7-9.1 42.7c-8.9 5.1-18.2 5.9-27.2 .6c-9.4-5.6-13.7-14.3-13.8-21Z" class="g1_4"/>
<path d="M400.6 356.7c0-14.6 11.1-26.3 25.7-26c18.7 .4 28.2 15.2 28.2 28.7c-.1 14.9-11 26.2-25.4 26.2c-15.4 0-28.4-13.2-28.5-28.9Z" class="g1_4"/>
<path d="M402.8 218.4c0-15.5 13.2-28.5 28.9-28.5C445.8 189.8 457 201 457 215c0 15.4-13.3 28.1-29.3 27.9c-14-.1-25-10.9-24.9-24.5Z" class="g1_4"/>
<path d="M375.8 362.5c0 12.9-7.2 22-19 23.4c-6.4 .8-12.2-1.4-17.1-5.4c-10.4-8.4-14.8-19.4-12.6-32.6c2.3-13.3 16.5-20.1 29.8-14.6c11.2 4.7 18.8 16.4 18.9 29.2Z" class="g1_4"/>
<path d="M377.7 211.7c0 14.5-11.1 28.1-25.3 31c-14.9 3.2-26.3-7.6-24.6-23.3c1.5-13.4 12.8-25.9 25.9-28.6c13-2.6 23.4 5.5 24 18.7c0 .7 0 1.5 0 2.2Z" class="g1_4"/>
<path d="M333.9 284.3c-.9 10.1-3.8 18.8-11.3 25.6c-9 8.1-20.6 6.8-27.6-3.1c-8.5-12.1-7.1-32.8 3.1-43.5c10.5-11.1 25.8-8.2 31.9 6.5c2 4.5 2.6 9.6 3.9 14.5Z" class="g1_4"/>
<path d="M608.2 224.5c.2 18.7-14.4 28.1-29.2 20.5c-12.1-6.2-18.5-16.6-18.5-30.1c.1-17.6 15.1-26.1 30.3-17.5c11.1 6.3 16.4 16.5 17.4 27.1Z" class="g1_4"/>
<path d="M471 182.9c-13.4 0-24.1-9.6-24.1-21.8c0-12.4 10.8-22.7 23.9-22.7c12.8-.1 23.9 10.5 24 23c.1 12.1-10.3 21.4-23.8 21.5Z" class="g1_4"/>
<path d="M394.9 182.2c-12.7 .1-20.6-9.1-17.2-21c1.2-4.5 4-8.8 7-12.4c5.4-6.5 12.7-10.1 21.3-10.7c12.1-.7 20.2 8.4 18.2 20.4c-2.2 13.1-15.1 23.5-29.3 23.7Z" class="g1_4"/>
<path d="M545.3 184.9c-13.5-.1-26.1-11.1-28-24.5c-1.8-12.6 7.2-21.6 19.9-19.9c11.9 1.7 24 13.9 25.5 25.8c1.4 10.7-6 18.7-17.4 18.6Z" class="g1_4"/>
<path d="M308.6 370c-1.3 4.3-2 9-4 13c-2.8 5.6-8.7 6.9-14.2 3.7c-9.3-5.4-14-14.2-16.3-24.2c-1.2-5.6-1.5-11.7-.8-17.5c1.2-10.6 10-14.3 18.9-8.3c8.4 5.6 12 14.3 14.4 23.6c.8 3 .9 6.3 1.4 9.4c.2 .1 .4 .2 .6 .3Z" class="g1_4"/>
<path d="M273.5 229.7c1.3-12.9 5.9-25.3 17.6-33.8c8.7-6.5 16.7-3.1 17.8 7.7c1.7 15.9-4.4 28.8-16.4 39c-.7 .6-1.6 1-2.4 1.5c-8.2 4.2-14.9 .7-16.2-8.4c-.3-1.7-.3-3.3-.4-6Z" class="g1_4"/>
<path d="M357.2 432.2c0 10.7-7.2 15.9-16.9 11.4c-13.4-6.2-21.9-16.7-24.4-31.4c-1.7-9.9 5.1-15.9 14.9-13.7c13.6 3.1 26.3 19.3 26.4 33.7Z" class="g1_4"/>
<path d="M621.1 177.4c.1 7.7-4.3 12-12 11c-9.7-1.3-16.6-7.2-22-14.8c-4.5-6.3-7.4-13.2-6.9-21.1c.4-6.4 4.7-10 10.9-9.1c13.6 2 29.8 20.4 30 34Z" class="g1_4"/>
<path d="M317 171.6c.5-6.7 4.8-13.6 10.4-19.7c5.2-5.9 11.4-10.5 19.3-12.3c7-1.6 12.5 2.4 12.5 9.5c0 9.8-4.7 17.6-11.5 24.3c-5.7 5.5-12.2 9.8-20.4 10.2c-6.7 .3-10.3-3.4-10.3-12Z" class="g1_4"/>
<path d="M246.6 291.6c.9-8.1 1.8-16 5.3-23.2c1.2-2.5 3-4.9 5.1-6.7c3.1-2.9 6-2.5 8.9 .7c3.7 4 4.9 9.1 5.7 14.2c1.9 12 1.1 23.6-4.3 34.6c-1.8 3.7-4.2 7.5-8.7 7.4c-4.7-.2-7-4.4-8.1-8.4c-1.7-6.1-2.6-12.4-3.9-18.6Z" class="g1_4"/>
<path d="M456.6 472.6c0 13.4-11.7 20.4-23.2 13.7c-7-4.2-11.9-10.3-13-18.8c-1-8.3 4-14.6 12.3-15.7c12.4-1.6 23.8 8.3 23.9 20.8Z" class="g1_4"/>
<path d="M397.4 489.2c-4.5-.3-9.3-2.9-13.8-6c-7-4.7-12.8-10.6-15.3-18.8c-2.5-8 2.3-13.4 10.6-12.4c10.4 1.4 17.9 7.2 23.1 15.8c2.2 3.7 3.6 8 4.4 12.2c1.1 5.6-2.3 9.2-9 9.2Z" class="g1_4"/>
<path d="M440.5 129.9c-2.9-.8-6-1.3-8.7-2.5c-5.8-2.7-8-8-6.2-14.2c2.7-9.4 15-17.8 24.7-16.6c5.5 .7 9.8 3.6 11.6 9.1c2.2 6.6 .2 12.4-4.6 17.1c-4.5 4.6-10.3 6.5-16.8 7.1Z" class="g1_4"/>
<path d="M502.3 130.3c-12-.2-21.5-8.8-21.4-19.5c.1-8.1 6.7-14.4 14.8-13.5c9.2 1.1 16.1 6 20.3 14.2c5.1 10.2-1.3 19-13.7 18.8Z" class="g1_4"/>
<path d="M380.2 129.7c-8.4 .1-11.9-5.3-7.7-12.5c6.7-11.6 17.1-18.3 30.3-20.3c6.1-.9 9.3 3.2 7.9 9.2c-2.9 12.1-17.5 23.5-30.5 23.6Z" class="g1_4"/>
<path d="M560.2 133c-.8-.2-2.5-.3-4.1-.8c-12.1-3.9-20.6-11.5-24.3-24c-1.7-5.9 1.6-10 7.6-8.9c13.4 2.5 23.5 10.2 29.3 22.6c2.9 6.3-.8 11-8.5 11.1Z" class="g1_4"/>
<path d="M311.8 441.9c0 5.2-1.8 6.5-5.8 5.1c-1.3-.4-2.7-1-3.8-1.9c-12.3-9.2-20.5-21.2-24.4-36.1c-.3-1.4-.4-2.9-.1-4.2c.6-3.3 2.5-4.6 5.5-3.3c3.2 1.3 6.5 3 9 5.4c9.1 8.8 15.7 19.3 19 31.7c.4 1.4 .5 2.8 .6 3.3Z" class="g1_4"/>
<path d="M662.2 187.3c.2 5.7-2.4 7.7-6.6 5.1c-4.3-2.7-8.4-6.2-11.8-10c-7.2-8.2-13-17.4-15.5-28.2c-.5-1.9 0-4.8 1.2-6c.9-.8 4.1-.1 5.7 .8c7.6 4.1 12.9 10.7 17.5 17.7c3.5 5.4 6 11.5 8.8 17.3c.6 1.2 .6 2.7 .7 3.3Z" class="g1_4"/>
<path d="M277.9 181.2c.2-.6 .4-2.2 .9-3.6c5.2-13.3 13.5-24.2 24.9-32.8c2.2-1.7 5.1-4.4 7.4-2.1c1.4 1.3 1.2 5.4 .4 7.7c-4.7 13-12.3 24.2-23.1 32.9c-1.4 1.1-2.9 2.1-4.5 2.8c-4.2 1.9-6.1 .5-6-4.9Z" class="g1_4"/>
<path d="M331.9 453.3c3.5 1.6 7.2 2.8 10.4 4.9c9.6 6.2 17.2 14.4 22.6 24.4c1.1 2.1 .9 4.8 1.3 7.2c-2.4-.1-5 .4-7-.4c-12.4-5.1-22.1-13.6-29.7-24.4c-1.3-1.7-2.1-4-2.5-6.2c-.6-3.4 1.1-5 4.9-5.5Z" class="g1_4"/>
<path d="M265.4 382.1c-.2 2.2-.2 4.4-.5 6.6c-.6 3.5-2.8 4.5-5.1 1.9c-2.8-3.1-5.2-6.7-7.1-10.4c-4.8-9.9-8.1-20.4-9-31.4c-.3-2.6 0-5.2 .5-7.7c.7-3.4 3.4-4.2 5.7-1.6c2.2 2.5 4.2 5.4 5.7 8.4c5.4 10.7 8.7 22.1 9.8 34.2Z" class="g1_4"/>
<path d="M244.7 243.3c1.8-15.5 6.2-30 15.2-42.9c1.1-1.7 3.6-2.5 5.4-3.7c.5 2.1 1.6 4.3 1.4 6.3c-1.5 14.6-6.1 28.3-13.7 40.9c-1.1 1.7-2.4 3.2-3.8 4.6c-.7 .7-2.2 1.4-2.7 1.1c-.9-.5-1.4-1.8-1.7-2.8c-.3-1.1-.1-2.4-.1-3.5Z" class="g1_4"/>
<path d="M611.8 132c.1 3.6-1.6 5.2-4.4 4.3c-3.6-1.1-7.2-2.4-10.4-4.4c-9.3-5.8-17-13.5-22.8-22.8c-1.2-1.9-1.3-4.5-1.9-6.7c2.3 .2 4.8-.2 6.7 .7c12.2 5.4 22.7 13.1 30.5 24.1c1.2 1.6 1.8 3.7 2.3 4.8Z" class="g1_4"/>
<path d="M333.7 131.6c-4.2 .1-5.8-1.9-4-4.7c2.6-4.3 5.5-8.7 9.3-11.8c6.7-5.3 14.1-9.8 21.2-14.5c1.4-.9 3-1.5 4.6-1.7c1.5-.3 3.1 .1 4.7 .2c-.3 1.4-.3 3-1 4.2c-4.3 7.5-10.3 13.6-17.1 18.7c-4.3 3.2-9.1 5.7-13.9 8.3c-1.3 .8-3.1 1.1-3.8 1.3Z" class="g1_4"/>
<path d="M475.7 507.1c-.1 7.1-5.7 13.5-11.6 13.3c-5.4-.2-10.8-7.3-10.5-13.9c.2-6 5-10.2 11.4-10.1c6.5 .2 10.8 4.4 10.7 10.7Z" class="g1_4"/>
<path d="M424 495.5c9.9 1.1 20.5 11.4 20.9 20.9c.2 2.5-.9 4.3-3.6 3.8c-2.3-.3-4.6-1-6.7-2c-6.4-2.9-12.2-6.8-15.6-13.2c-1-1.8-1.3-4.8-.5-6.5c.8-1.5 3.6-2 5.5-3Z" class="g1_4"/>
<path d="M487.6 521.7c-3-.4-3.8-2-3.7-4.3c.5-9.5 12-20.2 21.4-19.9c4.9 .2 7 3.5 4.9 8c-2.8 6-8.2 9.2-13.7 12.3c-2.8 1.6-5.9 2.6-8.9 3.9Z" class="g1_4"/>
<path d="M542.9 502.3c-.3 1.2-.6 2.3-1.3 3c-7.4 7.7-16.9 11.7-26.7 15c-1.3 .4-2.8-.1-3.5-1.3c-.8-1.2-.6-2.9 .5-3.8c7.7-7 16.1-12.8 26.6-15.3c1-.3 2.1 0 3.2 .4c.9 .2 1.4 1.1 1.2 2Z" class="g1_4"/>
<path d="M338.9 490.7c-10.5-5.1-28.1-20.4-34-30c-1-1.5 .7-3.5 2.4-2.6c.5 .2 .9 .4 1.3 .7c8.2 6.8 16.3 13.6 24.3 20.5c3 2.6 5.6 5.5 8.2 8.4c1.4 1.5-.4 3.8-2.2 3Z" class="g1_4"/>
<path d="M421.8 519.8c.2 .8-.6 1.5-1.3 1.3c-3.2-1-6.2-1.7-8.9-2.8c-8.9-3.6-17.3-8.1-24.4-14.7c-1.1-1.1-1.7-2.6-2.4-4.1c-.3-.6 .1-1.3 .7-1.5c1.7-.4 3.5-1 4.9-.5c12.6 4.3 22.8 12.2 31.3 22.2c0 0 .1 .1 .1 .1Z" class="g1_4"/>
<path d="M473.1 88.5c-2.2-.2-3.4-.1-4.6-.4c-5.1-1.2-8.1-5.1-7.4-9.2c.8-4.6 7-9.3 11.7-8.2c3.1 .7 6.3 2.4 8.5 4.6c3.9 3.9 2.6 9.3-2.4 11.6c-2.1 1-4.5 1.3-5.8 1.6Z" class="g1_4"/>
<path d="M430.1 88.8c-1.8-1-4.7-1.7-5.2-3.2c-.5-1.5 .9-4.3 2.3-5.6c5.9-5.6 13.3-8.4 21.2-9.6c3.5-.5 4.6 1.5 3.1 4.9c-2.9 6.7-13 12.9-21.4 13.5Z" class="g1_4"/>
<path d="M514.1 90c-9.8-1.3-16.8-5.6-21.2-13.6c-.7-1.1-.9-3.3-.2-4.2c.6-.8 2.9-1.1 4-.7c5.8 2.4 11.4 5 17 7.6c1.2 .6 2.4 1.7 3 2.9c1 1.7 2.2 4 1.7 5.6c-.5 1.3-3.2 1.8-4.3 2.4Z" class="g1_4"/>
<path d="M236.1 321.9c-2.9-18.8-2.4-37.5 1.2-56.1c3 18.8 2.2 37.5-1.2 56.1Z" class="g1_4"/>
<path d="M515.3 72.1c3.6 1 7.4 1.6 10.7 3.2c7.7 3.5 15.2 7.3 22.6 11.4c1.3 .7 1.9 2.8 2.8 4.3c-1.7 .1-3.4 .5-5 .1c-9.7-2.6-17.8-8.4-25.9-14c-1.9-1.3-3.7-2.8-5.5-4.2c.1-.3 .2-.6 .3-.8Z" class="g1_4"/>
<path d="M428.5 72.1c-7 4.1-13.9 8.3-21 12c-4.2 2.1-8.8 3.4-13.3 4.8c-.9 .3-2.1-.4-3.2-.6c.5-1.1 .7-2.6 1.5-3.2c4.1-2.5 8.1-5.3 12.6-7.1c7.3-3 14.9-5.3 22.5-7.9Z" class="g1_4"/>
<path d="M261.6 406.1c12 13.1 21.1 28.2 30.2 44.4c-7.2-2.9-29.2-35.3-30.2-44.4Z" class="g1_4"/>
<path d="M405.9 521.4c-16.1-4.1-31.1-10.6-44.3-20.7c-.4-.3-.6-.9-.3-1.4c.2-.5 .8-.8 1.4-.6c15.6 5.1 28.9 14.9 43.2 22.7Z" class="g1_4"/>
<path d="M305.3 134c10.7-14 24.6-24.2 39.9-32.6c-12.5 11.9-24.9 23.8-39.9 32.6Z" class="g1_4"/>
<path d="M636.8 139.9c-14.8-8.9-26.2-21.5-38.1-33.7c14.8 8.8 28 19.5 38.1 33.7Z" class="g1_4"/>
<path d="M575.2 94.6c-12.8-6-25.5-12-38.8-18.2c7.1-.1 34.2 12.2 38.8 18.2Z" class="g1_4"/>
<path d="M407.8 73.6c-13.1 5.7-26.3 11.5-39.4 17.2c-.1-.4-.3-.7-.5-1.1c12.2-7.9 26-12.1 39.9-16.1Z" class="g1_4"/>
<path d="M288.2 150.8c-8.3 12.3-16.6 24.7-24.9 37c6.6-13.5 14.4-26.2 24.9-37Z" class="g1_4"/>
<path d="M656.2 159c6.8 10.6 13.5 21.3 20.3 31.9c.2 .3 .1 .8-.3 1l-.2 .1c-.3 .2-.8 .1-1-.2c-6.7-10.7-13.3-21.3-20-32c-.2-.3-.1-.8 .2-1c.4-.2 .8-.1 1 .2Z" class="g1_4"/>

</g>

<style>

@font-face {
	font-family: OpenSans_14;
	src: url("fonts/OpenSans_14.woff") format("woff");
}

@font-face {
	font-family: Pattanakarn-Medium_15;
	src: url("fonts/Pattanakarn-Medium_15.woff") format("woff");
}

</style>

</svg>
