<svg xmlns="http://www.w3.org/2000/svg" viewBox="0 0 40 40" fill="#FFFFFF">
  <!-- Core large dots (center mass) -->
  <circle cx="20" cy="20" r="3.2"/>
  <circle cx="14" cy="20.5" r="2.8"/>
  <circle cx="18" cy="26" r="2.6"/>
  <circle cx="18" cy="14" r="2.5"/>
  <circle cx="14" cy="26.5" r="2.3"/>
  <circle cx="14" cy="14" r="2.3"/>
  <circle cx="9" cy="20" r="2.2"/>
  <circle cx="26" cy="16" r="2.2"/>
  <!-- Medium dots (middle ring) -->
  <circle cx="20" cy="11" r="2"/>
  <circle cx="16" cy="11" r="1.8"/>
  <circle cx="24" cy="12" r="1.8"/>
  <circle cx="20" cy="29" r="2"/>
  <circle cx="15" cy="30" r="1.6"/>
  <circle cx="10" cy="27" r="1.5"/>
  <circle cx="10" cy="13.5" r="1.5"/>
  <circle cx="27" cy="19" r="1.5"/>
  <!-- Small outer dots -->
  <circle cx="6" cy="24" r="1.3"/>
  <circle cx="6" cy="16.5" r="1.2"/>
  <circle cx="5" cy="20" r="1.1"/>
  <circle cx="20" cy="7" r="1.3"/>
  <circle cx="16" cy="7.5" r="1.1"/>
  <circle cx="24" cy="8" r="1.1"/>
  <circle cx="20" cy="33" r="1.2"/>
  <circle cx="15" cy="33" r="1"/>
  <!-- Tiny peripheral dots -->
  <circle cx="28" cy="12" r="1"/>
  <circle cx="29" cy="15" r="0.8"/>
  <circle cx="12" cy="33" r="0.8"/>
  <circle cx="8" cy="29" r="0.8"/>
  <circle cx="8" cy="11.5" r="0.8"/>
  <circle cx="12" cy="7.5" r="0.7"/>
  <circle cx="27" cy="8.5" r="0.7"/>
  <circle cx="24" cy="32" r="0.7"/>
  <!-- Scatter dots (outermost) -->
  <circle cx="4" cy="13" r="0.6"/>
  <circle cx="3.5" cy="18" r="0.5"/>
  <circle cx="4" cy="26" r="0.5"/>
  <circle cx="7" cy="30.5" r="0.5"/>
  <circle cx="6" cy="9" r="0.5"/>
  <circle cx="30" cy="11" r="0.5"/>
  <circle cx="29" cy="17" r="0.5" opacity="0.7"/>
  <circle cx="13" cy="5.5" r="0.5"/>
  <circle cx="20" cy="5" r="0.5"/>
  <circle cx="20" cy="35" r="0.5"/>
  <circle cx="10" cy="35" r="0.4" opacity="0.6"/>
  <circle cx="26" cy="34" r="0.4" opacity="0.6"/>
</svg>
